<svg xmlns="http://www.w3.org/2000/svg" width="250" height="250" viewBox="0 0 250 250">
    <g fill="#000" fill-rule="evenodd">
        <path d="M103.636 70.494L125 91.858l21.364-21.364a2 2 0 0 1 2.829 0l.313.313a2 2 0 0 1 0 2.829L128.142 95l21.364 21.364a2 2 0 0 1 0 2.829l-.313.313a2 2 0 0 1-2.829 0L125 98.142l-21.364 21.364a2 2 0 0 1-2.829 0l-.313-.313a2 2 0 0 1 0-2.829L121.858 95l-21.364-21.364a2 2 0 0 1 0-2.829l.313-.313a2 2 0 0 1 2.829 0z"/>
        <path d="M169.338 100a3 3 0 0 1 2.846 2.05L187 146.47V189a3 3 0 0 1-3 3H66a3 3 0 0 1-3-3v-42.53l14.816-44.42a3 3 0 0 1 2.846-2.05H94v4H81.382l-13.008 38.999 34.13.001c2.549 0 4.157 1.265 4.676 3.25l.05.207c.12.556.145.971.145 1.686 0 9.311 7.517 16.857 16.786 16.857 9.269 0 16.786-7.546 16.786-16.857 0-.516.01-.806.062-1.201a4.83 4.83 0 0 1 .545-1.737c.751-1.364 2.139-2.133 3.996-2.2l.268-.005 35.808-.001L168.618 104H156v-4h13.338zM67.07 146.91l-.07.21V188h116v-40.88l-.04-.121-37.142.001c-.795 0-.864-.005-.87.857v.286c0 11.517-9.305 20.857-20.787 20.857s-20.786-9.34-20.786-20.857c0-.438-.012-.643-.053-.833-.06-.271-.084-.306-.681-.31H67.668a2 2 0 0 1-.598-.09z"/>
        <rect width="7" height="4" x="153" y="100" rx="2"/>
        <rect width="7" height="4" x="90" y="100" rx="2"/>
    </g>
</svg>
